<svg preserveAspectRatio="none" width="100%" height="100%" overflow="visible" style="display: block;" viewBox="0 0 51.9998 52" fill="none" xmlns="http://www.w3.org/2000/svg">
<g id="Frame">
<rect width="51.9998" height="52" rx="25.9999" fill="var(--fill-0, white)"/>
<path id="Vector" d="M35.7424 29.7149L30.6637 27.4391L30.6497 27.4326C30.386 27.3199 30.0984 27.2746 29.8128 27.301C29.5273 27.3273 29.2528 27.4244 29.0142 27.5836C28.9861 27.6021 28.9591 27.6223 28.9334 27.6439L26.3094 29.8809C24.647 29.0735 22.9307 27.3701 22.1233 25.7293L24.3635 23.0654C24.385 23.0384 24.4055 23.0115 24.4249 22.9824C24.5806 22.7445 24.6751 22.4717 24.6999 22.1885C24.7247 21.9052 24.6792 21.6202 24.5672 21.3588V21.3459L22.285 16.2585C22.137 15.917 21.8826 15.6326 21.5596 15.4476C21.2367 15.2626 20.8626 15.1871 20.4932 15.2322C19.0324 15.4244 17.6915 16.1418 16.721 17.2504C15.7505 18.359 15.2167 19.783 15.2193 21.2564C15.2193 29.8162 22.1836 36.7805 30.7434 36.7805C32.2168 36.7832 33.6408 36.2494 34.7494 35.2789C35.858 34.3083 36.5754 32.9675 36.7677 31.5066C36.8128 31.1374 36.7374 30.7634 36.5527 30.4405C36.3679 30.1176 36.0837 29.8631 35.7424 29.7149ZM30.7434 35.0556C27.0849 35.0516 23.5773 33.5965 20.9903 31.0095C18.4034 28.4225 16.9482 24.915 16.9442 21.2564C16.9402 20.2037 17.3195 19.1854 18.0112 18.3919C18.703 17.5983 19.66 17.0837 20.7034 16.9441C20.703 16.9484 20.703 16.9528 20.7034 16.9571L22.9674 22.024L20.739 24.6911C20.7164 24.7171 20.6959 24.7449 20.6776 24.7741C20.5153 25.0231 20.4202 25.3097 20.4013 25.6062C20.3824 25.9028 20.4404 26.1992 20.5698 26.4667C21.5465 28.4643 23.5592 30.462 25.5784 31.4376C25.8479 31.5658 26.146 31.6218 26.4436 31.6003C26.7412 31.5787 27.0282 31.4803 27.2764 31.3147C27.3041 31.2961 27.3307 31.2759 27.3562 31.2544L29.9769 29.0185L35.0438 31.2878C35.0438 31.2878 35.0525 31.2878 35.0557 31.2878C34.9178 32.3327 34.404 33.2916 33.6103 33.9851C32.8166 34.6786 31.7974 35.0592 30.7434 35.0556Z" fill="var(--fill-0, #121212)"/>
</g>
</svg>
