<svg preserveAspectRatio="none" width="100%" height="100%" overflow="visible" style="display: block;" viewBox="0 0 47.9998 48" fill="none" xmlns="http://www.w3.org/2000/svg">
<g id="Frame">
<rect width="47.9998" height="48" rx="23.9999" fill="var(--fill-0, #121212)"/>
<path id="Vector" d="M23.9999 15C22.2199 15 20.4798 15.5278 18.9998 16.5168C17.5197 17.5057 16.3662 18.9113 15.685 20.5558C15.0038 22.2004 14.8256 24.01 15.1728 25.7558C15.5201 27.5016 16.3773 29.1053 17.6359 30.364C18.8946 31.6226 20.4983 32.4798 22.2441 32.8271C23.9899 33.1743 25.7995 32.9961 27.444 32.3149C29.0886 31.6337 30.4942 30.4802 31.4831 29.0001C32.4721 27.5201 32.9999 25.78 32.9999 24C32.9971 21.6139 32.048 19.3263 30.3608 17.6391C28.6736 15.9518 26.386 15.0027 23.9999 15ZM31.6153 24C31.6159 24.7023 31.5189 25.4013 31.3271 26.0769H27.9945C28.2068 24.7004 28.2068 23.2996 27.9945 21.9231H31.3271C31.5189 22.5987 31.6159 23.2977 31.6153 24ZM21.7499 27.4615H26.2499C25.8066 28.9142 25.037 30.2462 23.9999 31.3558C22.9632 30.2459 22.1937 28.914 21.7499 27.4615ZM21.4124 26.0769C21.1747 24.7025 21.1747 23.2975 21.4124 21.9231H26.5943C26.832 23.2975 26.832 24.7025 26.5943 26.0769H21.4124ZM16.3845 24C16.3839 23.2977 16.4809 22.5987 16.6727 21.9231H20.0053C19.793 23.2996 19.793 24.7004 20.0053 26.0769H16.6727C16.4809 25.4013 16.3839 24.7023 16.3845 24ZM26.2499 20.5385H21.7499C22.1932 19.0858 22.9628 17.7538 23.9999 16.6442C25.0366 17.7541 25.8061 19.086 26.2499 20.5385ZM30.7784 20.5385H27.696C27.3074 19.1131 26.6526 17.7741 25.7661 16.5923C26.8372 16.8496 27.84 17.3355 28.7058 18.0166C29.5715 18.6977 30.2798 19.558 30.7819 20.5385H30.7784ZM22.2336 16.5923C21.3471 17.7741 20.6923 19.1131 20.3038 20.5385H17.2179C17.72 19.558 18.4283 18.6977 19.294 18.0166C20.1598 17.3355 21.1625 16.8496 22.2336 16.5923ZM17.2179 27.4615H20.3038C20.6923 28.8869 21.3471 30.2259 22.2336 31.4077C21.1625 31.1504 20.1598 30.6645 19.294 29.9834C18.4283 29.3023 17.72 28.442 17.2179 27.4615ZM25.7661 31.4077C26.6526 30.2259 27.3074 28.8869 27.696 27.4615H30.7819C30.2798 28.442 29.5715 29.3023 28.7058 29.9834C27.84 30.6645 26.8372 31.1504 25.7661 31.4077Z" fill="var(--fill-0, white)"/>
</g>
</svg>
