<svg preserveAspectRatio="none" width="100%" height="100%" overflow="visible" style="display: block;" viewBox="0 0 47.9998 48" fill="none" xmlns="http://www.w3.org/2000/svg">
<g id="Frame">
<rect width="47.9998" height="48" rx="23.9999" fill="var(--fill-0, #121212)"/>
<path id="Vector" d="M29.1592 25.4573L26.3897 24.0727C26.2807 24.0184 26.1592 23.9938 26.0377 24.0014C25.9161 24.009 25.7987 24.0485 25.6973 24.116L24.4259 24.964C23.8423 24.6432 23.362 24.163 23.0412 23.5794L23.8893 22.3082C23.9568 22.2068 23.9964 22.0894 24.0039 21.9678C24.0115 21.8463 23.9869 21.7249 23.9326 21.6159L22.5479 18.8466C22.4905 18.7307 22.4018 18.6332 22.2918 18.5652C22.1818 18.4971 22.0549 18.4612 21.9256 18.4615C21.0075 18.4615 20.1269 18.8262 19.4777 19.4754C18.8285 20.1246 18.4637 21.005 18.4637 21.9231C18.466 23.9421 19.2692 25.8778 20.697 27.3054C22.1248 28.7331 24.0606 29.5362 26.0798 29.5385C26.5345 29.5385 26.9846 29.4489 27.4046 29.275C27.8247 29.101 28.2063 28.846 28.5278 28.5246C28.8492 28.2032 29.1042 27.8216 29.2782 27.4016C29.4522 26.9816 29.5417 26.5315 29.5417 26.0769C29.5418 25.9483 29.5061 25.8222 29.4385 25.7128C29.3709 25.6033 29.2742 25.5149 29.1592 25.4573ZM26.0798 28.1538C24.4277 28.152 22.8438 27.495 21.6756 26.3269C20.5074 25.1588 19.8503 23.575 19.8485 21.9231C19.8483 21.4429 20.0146 20.9775 20.319 20.6061C20.6234 20.2347 21.0471 19.9802 21.518 19.886L22.5115 21.8763L21.666 23.1346C21.6028 23.2294 21.5639 23.3383 21.5529 23.4517C21.5419 23.565 21.559 23.6794 21.6028 23.7845C22.0982 24.9618 23.0348 25.8983 24.2122 26.3937C24.3177 26.4393 24.4329 26.458 24.5474 26.4481C24.6619 26.4381 24.7722 26.3998 24.8682 26.3365L26.1326 25.4937L28.1232 26.4871C28.0282 26.9585 27.7726 27.3823 27.4 27.6863C27.0273 27.9903 26.5607 28.1555 26.0798 28.1538ZM24.0027 15C22.4487 14.9997 20.9212 15.4016 19.5686 16.1667C18.2161 16.9319 17.0847 18.0341 16.2846 19.3661C15.4845 20.6982 15.0429 22.2146 15.0029 23.768C14.9628 25.3213 15.3256 26.8585 16.056 28.23L15.0737 31.1766C14.9923 31.4206 14.9805 31.6824 15.0396 31.9327C15.0987 32.183 15.2263 32.4119 15.4082 32.5937C15.59 32.7756 15.8189 32.9032 16.0693 32.9623C16.3196 33.0213 16.5814 33.0095 16.8254 32.9282L19.7723 31.946C20.9794 32.5879 22.317 32.9465 23.6834 32.9945C25.0498 33.0424 26.4092 32.7785 27.6583 32.2227C28.9075 31.6668 30.0136 30.8338 30.8927 29.7867C31.7718 28.7397 32.4008 27.5061 32.7319 26.1797C33.0631 24.8532 33.0876 23.4688 32.8038 22.1315C32.5199 20.7942 31.9351 19.5391 31.0937 18.4615C30.2523 17.3839 29.1764 16.5121 27.9478 15.9123C26.7191 15.3126 25.37 15.0006 24.0027 15ZM24.0027 31.6154C22.6638 31.6163 21.3484 31.2637 20.1895 30.5934C20.1046 30.5442 20.0103 30.5135 19.9127 30.5036C19.8151 30.4936 19.7165 30.5044 19.6235 30.5354L16.3866 31.6154L17.4658 28.3788C17.497 28.2858 17.5079 28.1873 17.4981 28.0897C17.4883 27.9922 17.4578 27.8978 17.4087 27.8129C16.5692 26.3616 16.2321 24.6738 16.4498 23.0114C16.6675 21.3489 17.4278 19.8048 18.6127 18.6185C19.7976 17.4322 21.3409 16.6701 23.0032 16.4503C24.6655 16.2306 26.3539 16.5655 27.8064 17.4031C29.2589 18.2407 30.3944 19.5342 31.0367 21.0829C31.679 22.6317 31.7922 24.349 31.3587 25.9687C30.9252 27.5883 29.9694 29.0196 28.6393 30.0406C27.3093 31.0615 25.6795 31.6151 24.0027 31.6154Z" fill="var(--fill-0, white)"/>
</g>
</svg>
