<svg preserveAspectRatio="none" width="100%" height="100%" overflow="visible" style="display: block;" viewBox="0 0 24.0977 24.0977" fill="none" xmlns="http://www.w3.org/2000/svg">
<g id="Frame 1000007343">
<path id="Vector" d="M15.4735 1.03297C13.9466 1.03297 12.454 1.48923 11.1845 2.34405C9.91494 3.19887 8.92544 4.41386 8.34113 5.83538C7.75682 7.25689 7.60394 8.82109 7.90182 10.3302C8.1997 11.8392 8.93496 13.2254 10.0146 14.3134C11.0943 15.4014 12.4699 16.1423 13.9674 16.4425C15.4649 16.7426 17.0172 16.5886 18.4278 15.9998C19.8385 15.411 21.0442 14.4138 21.8925 13.1345C22.7408 11.8552 23.1935 10.3511 23.1935 8.81246C23.1912 6.74994 22.3771 4.77258 20.9298 3.31415C19.4825 1.85573 17.5203 1.03535 15.4735 1.03297ZM22.0058 8.81246C22.0064 9.41953 21.9232 10.0237 21.7587 10.6077H18.9C19.0821 9.41791 19.0821 8.207 18.9 7.01719H21.7587C21.9232 7.60119 22.0064 8.20539 22.0058 8.81246ZM13.5435 11.8046H17.4035C17.0232 13.0602 16.3631 14.2116 15.4735 15.1707C14.5843 14.2113 13.9242 13.06 13.5435 11.8046ZM13.254 10.6077C13.0501 9.4197 13.0501 8.20522 13.254 7.01719H17.699C17.9028 8.20522 17.9028 9.4197 17.699 10.6077H13.254ZM8.94118 8.81246C8.94066 8.20539 9.02385 7.60119 9.18837 7.01719H12.047C11.8649 8.207 11.8649 9.41791 12.047 10.6077H9.18837C9.02385 10.0237 8.94066 9.41953 8.94118 8.81246ZM17.4035 5.82035H13.5435C13.9238 4.56472 14.5839 3.41333 15.4735 2.45422C16.3627 3.41358 17.0229 4.56489 17.4035 5.82035ZM21.288 5.82035H18.6439C18.3107 4.58828 17.749 3.43091 16.9886 2.40934C17.9073 2.63175 18.7675 3.05173 19.5101 3.64049C20.2528 4.22924 20.8603 4.97286 21.291 5.82035H21.288ZM13.9585 2.40934C13.198 3.43091 12.6364 4.58828 12.3031 5.82035H9.65602C10.0868 4.97286 10.6943 4.22924 11.4369 3.64049C12.1795 3.05173 13.0397 2.63175 13.9585 2.40934ZM9.65602 11.8046H12.3031C12.6364 13.0366 13.198 14.194 13.9585 15.2156C13.0397 14.9932 12.1795 14.5732 11.4369 13.9844C10.6943 13.3957 10.0868 12.6521 9.65602 11.8046ZM16.9886 15.2156C17.749 14.194 18.3107 13.0366 18.6439 11.8046H21.291C20.8603 12.6521 20.2528 13.3957 19.5101 13.9844C18.7675 14.5732 17.9073 14.9932 16.9886 15.2156Z" fill="var(--fill-0, #121212)"/>
<path id="Vector_2" d="M6.46557 0.651114C6.97059 0.58951 7.48207 0.693206 7.92357 0.946036C8.36275 1.1976 8.70899 1.58408 8.91185 2.0476L11.1951 7.13549L11.2507 7.25854V7.28783C11.3662 7.60882 11.4105 7.95178 11.3806 8.29272C11.3466 8.6801 11.2176 9.05326 11.0046 9.37865L11.0017 9.38256C10.9684 9.43255 10.9357 9.47579 10.9079 9.51049L10.8982 9.52221L8.93432 11.8572C9.67243 13.1392 10.9739 14.4307 12.2742 15.1677L14.571 13.2107L14.574 13.2078C14.6184 13.1704 14.6652 13.1352 14.7136 13.1033C15.0393 12.8866 15.4139 12.7545 15.8035 12.7185C16.194 12.6825 16.5874 12.744 16.948 12.8982L16.9558 12.9021L16.9646 12.906L16.9714 12.9089L22.0505 15.1853H22.0496C22.5136 15.3883 22.9005 15.7348 23.1521 16.1746C23.4047 16.6161 23.5078 17.1276 23.446 17.6326L23.4451 17.6384C23.2327 19.2517 22.4407 20.7325 21.2165 21.8044C19.9924 22.8761 18.4197 23.4652 16.7927 23.4626V23.4636C8.0218 23.4636 0.86089 16.4399 0.639394 7.72143L0.634511 7.30541C0.631831 5.67834 1.22098 4.10584 2.29271 2.88158C3.36471 1.65707 4.84616 0.864416 6.45971 0.652091L6.46557 0.651114ZM6.37377 3.71361C5.6651 3.90257 5.02444 4.29897 4.53783 4.85717C3.98425 5.49221 3.66552 6.29611 3.6306 7.13451L3.62768 7.30248V7.30443C3.63149 10.795 5.0198 14.1419 7.48803 16.6101C9.95614 19.0781 13.3024 20.4665 16.7927 20.4705H16.7947C17.6944 20.4735 18.5644 20.1484 19.2419 19.5564C19.8009 19.068 20.1968 18.4254 20.3845 17.7146L16.1316 15.8093L13.8171 17.7859L13.8152 17.7869C13.772 17.8235 13.7264 17.8578 13.6794 17.8894L13.6775 17.8913C13.3381 18.1178 12.9457 18.2525 12.5388 18.282C12.1318 18.3114 11.7237 18.2345 11.3552 18.0593L11.3513 18.0574C9.20541 17.0204 7.08824 14.9201 6.04857 12.7937L6.0476 12.7917C5.87074 12.4259 5.79134 12.0205 5.81713 11.615C5.84296 11.2094 5.97318 10.8168 6.19506 10.4763C6.22926 10.4227 6.26763 10.3719 6.30932 10.324L8.27514 7.96947L6.37377 3.71361Z" fill="var(--fill-0, #121212)" stroke="var(--stroke-0, white)" stroke-width="1.2683"/>
</g>
</svg>
