<svg preserveAspectRatio="none" width="100%" height="100%" overflow="visible" style="display: block;" viewBox="0 0 136.354 31.7792" fill="none" xmlns="http://www.w3.org/2000/svg">
<g id="Group">
<path id="Vector" d="M135.49 23.7523C135.274 23.6453 135.058 23.5384 134.95 23.5384C134.735 23.3244 134.519 23.1104 134.411 23.0034C134.303 22.8964 134.303 22.6824 134.303 22.4685V17.44C134.303 14.5514 133.655 12.4116 132.467 11.1278C131.388 9.9509 129.66 9.30897 127.285 9.20198H126.53C124.802 9.20198 123.507 9.41596 122.427 9.9509C121.347 10.3788 120.916 11.0208 120.916 11.6627C120.916 11.8767 121.024 12.1976 121.239 12.3046C121.455 12.5186 121.671 12.5186 121.995 12.5186C122.211 12.5186 122.859 12.3046 123.83 11.7697C124.694 11.2348 125.558 11.0208 126.422 11.0208H127.393C128.365 11.1278 129.229 11.4487 129.876 11.9837C130.74 12.6256 131.28 13.5885 131.388 14.7653H130.632C129.444 14.7653 128.365 14.8723 127.393 14.9793C125.558 15.1933 123.938 15.7282 122.751 16.4772C120.916 17.547 120.052 19.1518 120.052 21.0776C120.052 22.5755 120.592 23.7523 121.563 24.6082C122.535 25.4641 123.831 25.8921 125.558 25.8921C126.206 25.8921 126.853 25.8921 127.501 25.6781C128.149 25.5711 128.797 25.3571 129.337 25.0362C130.416 24.5012 131.28 23.7523 132.036 22.6824V24.3943C132.036 24.8222 132.144 25.1432 132.251 25.2502C132.359 25.4641 132.683 25.4641 133.115 25.4641C134.519 25.4641 135.49 25.4641 135.814 25.2502C136.138 25.1432 136.354 24.9292 136.354 24.6082C136.246 24.1803 136.03 23.9663 135.49 23.7523ZM131.712 18.9379C131.712 20.0078 131.496 20.7567 131.172 21.3986C130.848 21.9335 130.308 22.5755 129.444 23.0034C129.013 23.2174 128.581 23.4314 128.041 23.5384C127.825 23.6453 127.609 23.6453 127.393 23.6453C127.069 23.6453 126.745 23.7523 126.422 23.7523C125.45 23.7523 124.586 23.5384 124.046 22.8964C123.399 22.3615 123.075 21.6126 123.075 20.6497C123.075 19.1518 123.83 18.082 125.234 17.2261C125.882 16.9051 126.53 16.5841 127.393 16.3702C128.473 16.1562 129.768 15.9422 131.28 15.9422H131.712V18.9379Z" fill="var(--fill-0, white)"/>
<path id="Vector_2" d="M113.681 13.2703C113.681 12.8423 113.681 12.6284 113.573 12.4144C113.465 12.2004 113.357 12.0934 113.033 11.8795C112.925 11.8795 112.817 11.7725 112.601 11.6655C112.169 11.4515 112.061 11.2375 112.061 11.0236C112.061 10.8096 112.061 10.7026 112.277 10.5956C112.385 10.4886 112.601 10.2746 112.925 10.1676L113.141 10.0607C114.437 9.31175 115.408 8.99078 115.84 8.99078C116.056 8.99078 116.272 9.09777 116.38 9.31175C116.488 9.52572 116.488 9.95367 116.488 10.8096V22.4713C116.488 22.7922 116.488 23.0062 116.596 23.2202C116.704 23.4341 116.812 23.5411 116.92 23.5411C117.028 23.6481 117.244 23.6481 117.46 23.7551C117.999 23.9691 118.323 24.29 118.323 24.611C118.323 24.825 118.215 25.039 117.999 25.146C117.783 25.2529 117.46 25.2529 116.92 25.2529H113.357C112.817 25.2529 112.601 25.2529 112.385 25.146C112.169 25.039 112.169 24.932 112.169 24.718C112.169 24.504 112.169 24.397 112.277 24.29C112.385 24.1831 112.493 24.0761 112.817 23.9691C112.925 23.9691 113.033 23.8621 113.141 23.7551C113.573 23.5411 113.789 23.2202 113.789 22.5782L113.681 13.2703Z" fill="var(--fill-0, white)"/>
<path id="Vector_3" d="M112.71 4.17857C112.71 3.53664 112.926 3.10869 113.25 2.78773C113.574 2.46677 114.113 2.25279 114.653 2.25279C115.193 2.25279 115.733 2.46677 116.057 2.78773C116.381 3.10869 116.597 3.53664 116.597 4.17857C116.597 4.71351 116.381 5.24845 116.057 5.56941C115.733 5.89038 115.193 6.10435 114.653 6.10435C114.005 6.10435 113.574 5.89038 113.25 5.56941C112.926 5.24845 112.71 4.8205 112.71 4.17857Z" fill="var(--fill-0, white)"/>
<path id="Vector_4" d="M109.478 23.7523C109.262 23.6453 109.154 23.5384 108.938 23.5384C108.722 23.3244 108.506 23.1104 108.399 23.0034C108.399 22.8964 108.291 22.6824 108.291 22.4685V17.44C108.291 14.5514 107.643 12.4116 106.455 11.1278C105.376 9.9509 103.648 9.30897 101.273 9.20198H100.517C98.79 9.20198 97.4944 9.41596 96.4148 9.9509C95.3352 10.3788 94.9034 11.0208 94.9034 11.6627C94.9034 11.8767 95.0113 12.1976 95.2272 12.3046C95.4432 12.5186 95.6591 12.5186 95.983 12.5186C96.1989 12.5186 96.8467 12.3046 97.7104 11.7697C98.682 11.2347 99.5457 11.0208 100.301 11.0208H101.273C102.245 11.1278 103.108 11.4487 103.756 11.9837C104.62 12.6256 105.16 13.5885 105.268 14.7653H104.512C103.324 14.7653 102.245 14.8723 101.273 14.9793C99.4377 15.1933 97.9263 15.7282 96.6307 16.4772C94.7954 17.547 93.9317 19.1518 93.9317 21.0776C93.9317 22.5755 94.4715 23.7523 95.4432 24.6082C96.4148 25.4641 97.7104 25.8921 99.4377 25.8921C100.085 25.8921 100.733 25.8921 101.273 25.6781C101.921 25.5711 102.569 25.3571 103.108 25.0362C104.188 24.5012 105.052 23.7523 105.807 22.6824V24.3943C105.807 24.8222 105.915 25.1432 106.023 25.2502C106.131 25.4641 106.455 25.4641 106.887 25.4641C108.291 25.4641 109.262 25.4641 109.586 25.2502C109.91 25.1432 110.126 24.9292 110.126 24.6082C110.234 24.1803 110.018 23.9663 109.478 23.7523ZM105.699 18.9379C105.699 20.0078 105.592 20.7567 105.268 21.3986C104.944 21.9335 104.404 22.5755 103.54 23.0034C103.108 23.2174 102.677 23.4314 102.137 23.5384C101.921 23.6453 101.705 23.6453 101.489 23.6453C101.165 23.6453 100.841 23.7523 100.517 23.7523C99.5457 23.7523 98.682 23.5384 98.1422 22.8964C97.4944 22.3615 97.1705 21.6126 97.1705 20.6497C97.1705 19.1518 97.9263 18.082 99.3298 17.2261C99.9775 16.9051 100.625 16.5841 101.489 16.3702C102.569 16.1562 103.864 15.9422 105.376 15.9422H105.699V18.9379V18.9379Z" fill="var(--fill-0, white)"/>
<path id="Vector_5" d="M92.4136 9.63271C92.0897 9.41873 91.6579 9.41873 91.1181 9.41873H89.6066H88.635C88.2031 9.41873 87.5554 9.31175 86.5837 9.20476C85.612 9.09777 84.8563 8.99078 84.2086 8.99078C82.0493 8.99078 80.214 9.7397 78.9185 11.1305C77.515 12.5214 76.8672 14.4472 76.8672 16.6939C76.8672 18.9407 77.515 20.8664 78.9185 22.2573C80.214 23.6481 81.9414 24.397 84.1006 24.397H84.3165C84.5324 24.397 84.8563 24.397 85.1802 24.29C85.6121 24.1831 86.1519 24.0761 86.9076 23.9691C87.8792 24.397 88.635 24.825 89.0668 25.2529C89.4987 25.6809 89.7146 26.2158 89.7146 26.8578C89.7146 27.7137 89.1748 28.4626 88.2031 28.8905C87.2315 29.3185 85.9359 29.6394 84.3165 29.6394H84.1006C82.5891 29.6394 81.5095 29.5324 80.6458 29.2115C79.8901 28.9975 79.4583 28.5696 79.4583 28.0346C79.4583 28.0346 79.4583 27.9276 79.5662 27.7137C79.5662 27.4997 79.6742 27.3927 79.6742 27.2857C79.6742 27.0717 79.6742 26.9647 79.5662 26.8578C79.4583 26.7508 79.3503 26.6438 79.1344 26.6438C78.7025 26.6438 78.2707 26.8578 77.8388 27.2857C77.407 27.7137 77.299 28.1416 77.299 28.7835C77.299 29.7464 77.9468 30.4953 79.1344 31.0303C80.322 31.5652 82.0493 31.7792 84.2086 31.7792H84.4245C86.9076 31.7792 88.8509 31.2443 90.2544 30.3883C91.7658 29.5324 92.5216 28.2486 92.5216 26.7508C92.5216 25.8949 92.1977 25.039 91.6579 24.397C91.0101 23.7551 90.1464 23.2202 88.9589 22.7922C89.9305 22.0433 90.6862 21.0804 91.1181 20.0105C91.6579 18.9406 91.8738 17.7638 91.8738 16.4799C91.8738 15.4101 91.6579 14.4472 91.334 13.5913C91.0101 12.6284 90.4703 11.8795 89.8225 11.2375H90.6862H90.9021C91.7658 11.2375 92.3056 11.1305 92.6295 11.0236C92.9534 10.8096 93.1693 10.5956 93.1693 10.2746C92.8455 10.0607 92.7375 9.84669 92.4136 9.63271ZM87.5554 21.1874C86.7996 22.2573 85.6121 22.7922 84.2086 22.7922C82.8051 22.7922 81.6175 22.2573 80.8618 21.1874C80.106 20.1175 79.6742 18.6197 79.6742 16.6939C79.6742 14.8751 80.106 13.3773 80.8618 12.3074C81.6175 11.2375 82.8051 10.8096 84.2086 10.8096C85.6121 10.8096 86.7996 11.3445 87.5554 12.4144C88.3111 13.4843 88.7429 14.8751 88.7429 16.6939C88.7429 18.6197 88.419 20.1175 87.5554 21.1874Z" fill="var(--fill-0, white)"/>
<path id="Vector_6" d="M70.6037 13.2703C70.6037 12.8423 70.6037 12.6284 70.4957 12.4144C70.3878 12.2004 70.2798 12.0934 69.9559 11.8795C69.848 11.8795 69.74 11.7725 69.5241 11.6655C69.0923 11.4515 68.9843 11.2375 68.9843 11.0236C68.9843 10.8096 68.9843 10.7026 69.2002 10.5956C69.3082 10.4886 69.5241 10.2746 69.848 10.1676L70.0639 10.0607C71.3594 9.31175 72.3311 8.99078 72.7629 8.99078C72.9789 8.99078 73.1948 9.09777 73.3027 9.31175C73.4107 9.52572 73.4107 9.95367 73.4107 10.8096V22.4713C73.4107 22.7922 73.4107 23.0062 73.5187 23.2202C73.6266 23.4341 73.7346 23.5411 73.8425 23.5411C73.9505 23.6481 74.1664 23.6481 74.3823 23.7551C74.9222 23.9691 75.246 24.29 75.246 24.611C75.246 24.825 75.1381 25.039 74.9222 25.146C74.7062 25.2529 74.3823 25.2529 73.8425 25.2529H70.2798C69.74 25.2529 69.5241 25.2529 69.3082 25.146C69.0922 25.039 69.0922 24.932 69.0922 24.718C69.0922 24.504 69.0922 24.397 69.2002 24.29C69.3082 24.1831 69.4161 24.0761 69.74 23.9691C69.848 23.9691 69.9559 23.8621 70.0639 23.7551C70.4957 23.5411 70.7117 23.2202 70.7117 22.5782L70.6037 13.2703Z" fill="var(--fill-0, white)"/>
<path id="Vector_7" d="M69.742 4.17857C69.742 3.53664 69.9579 3.10869 70.2818 2.78773C70.6057 2.46677 71.1455 2.25279 71.6853 2.25279C72.2251 2.25279 72.657 2.46677 73.0888 2.78773C73.4127 3.21568 73.6286 3.64363 73.6286 4.17857C73.6286 4.71351 73.4127 5.24845 73.0888 5.56941C72.7649 5.89038 72.3331 6.10435 71.6853 6.10435C71.0375 6.10435 70.6057 5.89038 70.2818 5.56941C69.85 5.24845 69.742 4.8205 69.742 4.17857Z" fill="var(--fill-0, white)"/>
<path id="Vector_8" d="M62.5096 4.27813C62.5096 3.85017 62.5096 3.6362 62.4016 3.42222C62.2937 3.31524 62.1857 3.10126 61.8618 2.99427C61.7539 2.88728 61.6459 2.88728 61.43 2.7803C60.9981 2.56632 60.8902 2.35234 60.8902 2.13837C60.8902 1.92439 60.8902 1.81741 61.1061 1.60343C61.2141 1.49644 61.43 1.28247 61.7539 1.17548H61.8618C63.2653 0.426563 64.237 0.1056 64.6688 0.1056C64.8847 0.1056 65.1007 0.212587 65.2086 0.426563C65.3166 0.640539 65.3166 1.06849 65.3166 1.81741V22.5731C65.3166 22.894 65.3166 23.108 65.4245 23.322C65.5325 23.5359 65.6405 23.6429 65.7484 23.6429C65.8564 23.6429 65.9644 23.7499 66.2882 23.8569C66.936 24.0709 67.2599 24.3918 67.2599 24.7128C67.2599 24.9268 67.1519 25.1408 66.936 25.2477C66.7201 25.3547 66.3962 25.3547 65.8564 25.3547H62.1857C61.7539 25.3547 61.43 25.3547 61.2141 25.2477C60.9981 25.1408 60.8902 25.0338 60.8902 24.8198C60.8902 24.6058 60.8902 24.4988 60.9981 24.3918C61.1061 24.2849 61.322 24.1779 61.5379 24.0709C61.6459 24.0709 61.7539 23.9639 61.8618 23.8569C62.2937 23.6429 62.5096 23.322 62.5096 22.68V4.27813Z" fill="var(--fill-0, white)"/>
<path id="Vector_9" d="M54.8439 4.27951C54.8439 3.85156 54.8439 3.63759 54.736 3.42361C54.628 3.31662 54.5201 3.10265 54.3041 2.99566C54.1962 2.88867 54.0882 2.88867 53.8723 2.78168C53.3325 2.46072 53.1166 2.24674 53.1166 2.03277C53.1166 1.81879 53.2245 1.71181 53.3325 1.49783C53.4405 1.39084 53.6564 1.17687 53.9803 1.06988H54.0882C55.4917 0.320964 56.4634 1.59424e-09 56.8952 1.59424e-09C57.1111 1.59424e-09 57.3271 0.106988 57.435 0.320964V1.71181V22.4675C57.435 22.7884 57.435 23.0024 57.543 23.2164C57.6509 23.4303 57.7589 23.5373 57.8669 23.5373C57.9748 23.5373 58.1907 23.6443 58.4067 23.7513C59.0544 23.9653 59.3783 24.2862 59.3783 24.6072C59.3783 24.8212 59.2704 25.0352 59.0544 25.1421C58.8385 25.2491 58.5146 25.2491 57.9748 25.2491H54.3041C53.7643 25.2491 53.5484 25.2491 53.3325 25.1421C53.1166 25.0352 53.1166 24.9282 53.1166 24.7142C53.1166 24.5002 53.1166 24.3932 53.2245 24.2862C53.3325 24.1793 53.5484 24.0723 53.7643 23.9653C53.8723 23.9653 53.9803 23.8583 54.0882 23.7513C54.5201 23.5373 54.736 23.2164 54.736 22.5744L54.8439 4.27951Z" fill="var(--fill-0, white)"/>
<path id="Vector_10" d="M50.8468 21.4014C50.7388 21.2944 50.6308 21.1874 50.4149 21.1874C50.199 21.1874 49.8751 21.4014 49.3353 21.8293C48.9035 22.1503 48.5796 22.3643 48.2557 22.5782C47.7159 22.8992 47.0681 23.2202 46.4204 23.3272C45.8805 23.5411 45.1248 23.5411 44.4771 23.5411C44.1532 23.5411 43.8293 23.5411 43.6134 23.4341C42.7497 23.3272 41.886 22.8992 41.2382 22.3643C40.2666 21.6153 39.7268 20.5455 39.4029 19.2616C40.9143 19.0476 42.3178 18.9407 43.6134 18.6197C45.4487 18.2987 46.9602 17.7638 48.0398 17.2288C49.8751 16.266 50.8468 14.9821 50.8468 13.3773C50.8468 11.9864 50.307 10.9166 49.3353 10.1676C48.3637 9.41873 46.9602 8.99078 45.0169 8.99078C44.4771 8.99078 44.0452 8.99078 43.6134 9.09777C41.778 9.31175 40.2666 10.1676 38.8631 11.5585C37.1357 13.2703 36.38 15.4101 36.38 17.9778C36.38 20.3315 37.1357 22.1503 38.5392 23.5411C39.8347 24.825 41.5621 25.5739 43.6134 25.6809H44.1532C44.9089 25.6809 45.6646 25.5739 46.4204 25.3599C47.1761 25.1459 47.8238 24.932 48.4716 24.504C49.2273 24.0761 49.8751 23.5411 50.307 23.1132C50.7388 22.5782 51.0627 22.2573 51.0627 21.8293C51.0627 21.7223 50.9547 21.6153 50.8468 21.4014ZM39.187 17.4428C39.187 15.4101 39.7268 13.8052 40.8064 12.5214C41.5621 11.5585 42.5338 11.0236 43.6134 10.7026C43.9372 10.5956 44.3691 10.5956 44.8009 10.5956C45.7726 10.5956 46.6363 10.8096 47.1761 11.3445C47.7159 11.7725 48.0398 12.4144 48.0398 13.2703C48.0398 14.5541 47.284 15.517 45.8805 16.159C45.2328 16.4799 44.4771 16.6939 43.6134 17.0149C42.4258 17.3358 40.9143 17.5498 39.187 17.7638V17.4428Z" fill="var(--fill-0, white)"/>
<path id="Vector_11" d="M28.9298 23.1113V11.4496H27.8502C27.3104 11.4496 26.8786 11.3426 26.6626 11.2356C26.4467 11.1286 26.3387 10.8077 26.3387 10.4867C26.3387 10.2727 26.4467 10.0587 26.5547 9.84477C26.6626 9.73778 26.8786 9.63079 27.0945 9.5238H27.5263C28.282 9.41681 28.7139 9.30983 28.9298 9.09585C29.1457 8.88188 29.3617 7.91899 29.5776 6.31417C29.5776 5.88622 29.6855 5.56525 29.6855 5.24429V4.70935C29.7935 3.63947 30.2253 2.99755 30.7652 2.99755C30.9811 2.99755 31.197 3.10453 31.305 3.21152C31.5209 3.53248 31.5209 3.96044 31.5209 4.81634V9.41681H33.896C34.4358 9.41681 34.8677 9.5238 35.0836 9.63079C35.2995 9.73778 35.4075 10.0587 35.4075 10.3797C35.4075 10.7007 35.2995 10.9146 35.0836 11.1286C34.8677 11.2356 34.4358 11.3426 33.896 11.3426H31.5209V21.1855C31.5209 21.8274 31.5209 22.3623 31.6288 22.5763C31.7368 22.8973 31.9527 23.1113 32.1686 23.1113C32.4925 23.2182 33.1403 23.3252 34.004 23.3252C34.8677 23.3252 35.4075 23.6462 35.4075 24.0741C35.4075 24.3951 35.2995 24.7161 35.0836 24.8231C34.8677 24.9301 34.3279 25.037 33.4642 25.037H30.2253C29.5776 25.037 29.2537 24.9301 29.0378 24.7161C29.0378 24.7161 28.9298 24.0741 28.9298 23.1113Z" fill="var(--fill-0, white)"/>
<path id="Vector_12" d="M9.9313 22.3643V14.7681C9.9313 13.6982 9.93131 12.9493 9.82334 12.7354C9.71538 12.4144 9.60742 12.2004 9.3915 11.9864C9.28354 11.8795 8.95965 11.7725 8.63577 11.5585C8.31189 11.4515 8.09596 11.2375 8.09596 10.9166C8.09596 10.5956 8.41985 10.2746 9.06761 9.7397C9.71538 9.20476 10.3631 8.99078 10.795 8.99078C11.1189 8.99078 11.3348 9.20476 11.6587 9.7397C11.8746 10.1676 12.0905 10.9166 12.3064 11.7725C13.0622 10.8096 13.8179 10.1676 14.7896 9.7397C15.7612 9.31175 16.7329 8.99078 17.8125 8.99078C19.6478 8.99078 21.1593 9.63271 22.023 10.8096C22.9946 11.9864 23.4265 13.9122 23.4265 16.3729V22.3643C23.4265 22.6852 23.4264 23.0062 23.5344 23.1132C23.5344 23.3272 23.6424 23.3272 23.7503 23.4341C23.8583 23.5411 23.9663 23.6481 24.1822 23.6481C24.614 23.8621 24.8299 24.1831 24.8299 24.397C24.8299 24.611 24.722 24.718 24.614 24.825C24.3981 24.932 24.0742 24.932 23.7503 24.932H20.2956C19.8637 24.932 19.5398 24.932 19.4319 24.825C19.216 24.718 19.216 24.611 19.216 24.397C19.216 24.0761 19.4319 23.8621 19.7558 23.7551C19.8637 23.7551 19.9717 23.6481 19.9717 23.6481C20.4035 23.4341 20.6195 23.3272 20.7274 23.1132C20.8354 23.0062 20.8354 22.6852 20.8354 22.1503V16.4799C20.8354 14.6611 20.5115 13.2703 19.8637 12.4144C19.216 11.5585 18.2443 11.1305 16.8408 11.1305C15.5453 11.1305 14.4657 11.5585 13.7099 12.2004C12.9542 12.9493 12.5224 13.9122 12.5224 15.1961V22.7922V23.3272C12.5224 23.4341 12.6303 23.5411 12.7383 23.5411C12.8463 23.6481 12.9542 23.7551 13.2781 23.7551C13.7099 23.9691 13.9259 24.1831 13.9259 24.504C13.9259 24.718 13.8179 24.932 13.7099 25.039C13.494 25.1459 13.1701 25.1459 12.7383 25.1459H9.60742C9.17558 25.1459 8.85169 25.1459 8.74373 25.039C8.63577 24.932 8.52781 24.825 8.52781 24.611C8.52781 24.397 8.52781 24.29 8.63577 24.1831C8.74373 24.0761 8.85169 23.9691 9.17558 23.7551C9.17558 23.7551 9.28354 23.7551 9.3915 23.6481C9.71538 23.5411 9.9313 23.1132 9.9313 22.3643Z" fill="var(--fill-0, white)"/>
<path id="Vector_13" d="M1.61942 13.2703C1.61942 12.8423 1.61942 12.6284 1.51146 12.4144C1.40349 12.2004 1.29553 12.0934 0.97165 11.8795C0.863689 11.8795 0.755728 11.7725 0.539806 11.6655C0.107961 11.4515 0 11.2375 0 11.0236C0 10.8096 0 10.7026 0.215922 10.5956C0.323883 10.4886 0.539806 10.2746 0.863689 10.1676L0.97165 10.0607C2.26718 9.31175 3.23883 8.99078 3.67068 8.99078C3.8866 8.99078 4.10252 9.09777 4.21048 9.31175C4.31845 9.52572 4.31845 9.95367 4.31845 10.8096V22.4713C4.31845 22.7922 4.31845 23.0062 4.42641 23.2202C4.53437 23.4341 4.64233 23.5411 4.75029 23.5411C4.96621 23.6481 5.07417 23.6481 5.2901 23.7551C5.8299 23.9691 6.15378 24.29 6.15378 24.611C6.15378 24.825 6.04582 25.039 5.8299 25.146C5.61398 25.2529 5.2901 25.2529 4.75029 25.2529H1.18757C0.647767 25.2529 0.431845 25.2529 0.215922 25.146C0 25.039 0 24.932 0 24.718C0 24.504 0 24.397 0.107961 24.29C0.215922 24.0761 0.323883 23.9691 0.539806 23.8621C0.647767 23.8621 0.755728 23.7551 0.863689 23.6481C1.29553 23.4341 1.51146 23.1132 1.51146 22.4713L1.61942 13.2703Z" fill="var(--fill-0, white)"/>
<path id="Vector_14" d="M0.757723 4.17857C0.757723 3.53664 0.973645 3.10869 1.29753 2.78773C1.62141 2.46677 2.16122 2.25279 2.70102 2.25279C3.24083 2.25279 3.78064 2.46677 4.10452 2.78773C4.4284 3.21568 4.64432 3.64363 4.64432 4.17857C4.64432 4.71351 4.4284 5.24845 4.10452 5.56941C3.78064 5.89038 3.24083 6.10435 2.70102 6.10435C2.05326 6.10435 1.62141 5.89038 1.29753 5.56941C0.865684 5.24845 0.757723 4.8205 0.757723 4.17857Z" fill="var(--fill-0, white)"/>
</g>
</svg>
