<svg preserveAspectRatio="xMidYMid meet" width="100%" height="100%" overflow="visible" style="display: block;" viewBox="0 0 256 59.6613" fill="none" xmlns="http://www.w3.org/2000/svg">
<g id="Group">
<path id="Vector" d="M254.378 44.5943C253.973 44.3934 253.568 44.1925 253.365 44.1925C252.96 43.7908 252.554 43.3891 252.351 43.1882C252.149 42.9873 252.149 42.5856 252.149 42.1839V32.7432C252.149 27.3198 250.933 23.3025 248.703 20.8921C246.676 18.6826 243.433 17.4774 238.974 17.2766H237.555C234.312 17.2766 231.88 17.6783 229.853 18.6826C227.826 19.4861 227.015 20.6913 227.015 21.8965C227.015 22.2982 227.218 22.9008 227.623 23.1017C228.028 23.5034 228.434 23.5034 229.042 23.5034C229.447 23.5034 230.663 23.1017 232.488 22.0973C234.109 21.093 235.731 20.6913 237.352 20.6913H239.176C241.001 20.8921 242.622 21.4947 243.838 22.4991C245.46 23.7042 246.473 25.512 246.676 27.7216H245.257C243.028 27.7216 241.001 27.9224 239.176 28.1233C235.731 28.525 232.69 29.5293 230.461 30.9354C227.015 32.9441 225.393 35.957 225.393 39.5726C225.393 42.3847 226.407 44.5943 228.231 46.2012C230.055 47.8081 232.488 48.6116 235.731 48.6116C236.947 48.6116 238.163 48.6116 239.379 48.2098C240.595 48.009 241.811 47.6072 242.825 47.0046C244.852 46.0003 246.473 44.5943 247.892 42.5856V45.7995C247.892 46.6029 248.095 47.2055 248.298 47.4064C248.5 47.8081 249.108 47.8081 249.919 47.8081C252.554 47.8081 254.378 47.8081 254.986 47.4064C255.595 47.2055 256 46.8038 256 46.2012C255.797 45.3977 255.392 44.996 254.378 44.5943ZM247.284 35.5553C247.284 37.564 246.879 38.97 246.271 40.1752C245.663 41.1795 244.649 42.3847 243.028 43.1882C242.217 43.5899 241.406 43.9917 240.393 44.1925C239.987 44.3934 239.582 44.3934 239.176 44.3934C238.568 44.3934 237.96 44.5943 237.352 44.5943C235.528 44.5943 233.906 44.1925 232.893 42.9873C231.677 41.983 231.069 40.577 231.069 38.7692C231.069 35.957 232.488 33.9484 235.123 32.3415C236.339 31.7389 237.555 31.1363 239.176 30.7345C241.203 30.3328 243.636 29.9311 246.473 29.9311H247.284V35.5553Z" fill="var(--fill-0, #141414)"/>
<path id="Vector_2" d="M213.434 24.9115C213.434 24.1081 213.434 23.7063 213.231 23.3046C213.028 22.9029 212.826 22.702 212.218 22.3003C212.015 22.3003 211.812 22.0994 211.407 21.8986C210.596 21.4968 210.393 21.0951 210.393 20.6934C210.393 20.2916 210.393 20.0908 210.799 19.8899C211.001 19.689 211.407 19.2873 212.015 19.0864L212.42 18.8856C214.853 17.4795 216.677 16.8769 217.488 16.8769C217.893 16.8769 218.298 17.0778 218.501 17.4795C218.704 17.8812 218.704 18.6847 218.704 20.2916V42.186C218.704 42.7886 218.704 43.1903 218.906 43.592C219.109 43.9938 219.312 44.1946 219.514 44.1946C219.717 44.3955 220.123 44.3955 220.528 44.5964C221.541 44.9981 222.149 45.6007 222.149 46.2033C222.149 46.605 221.947 47.0067 221.541 47.2076C221.136 47.4085 220.528 47.4085 219.514 47.4085H212.826C211.812 47.4085 211.407 47.4085 211.001 47.2076C210.596 47.0067 210.596 46.8059 210.596 46.4041C210.596 46.0024 210.596 45.8015 210.799 45.6007C211.001 45.3998 211.204 45.199 211.812 44.9981C212.015 44.9981 212.218 44.7972 212.42 44.5964C213.231 44.1946 213.636 43.592 213.636 42.3868L213.434 24.9115Z" fill="var(--fill-0, #141414)"/>
<path id="Vector_3" d="M211.608 7.84284C211.608 6.63765 212.013 5.83419 212.622 5.23159C213.23 4.62899 214.243 4.22726 215.257 4.22726C216.27 4.22726 217.283 4.62899 217.892 5.23159C218.5 5.83419 218.905 6.63765 218.905 7.84284C218.905 8.84717 218.5 9.8515 217.892 10.4541C217.283 11.0567 216.27 11.4584 215.257 11.4584C214.04 11.4584 213.23 11.0567 212.622 10.4541C212.013 9.8515 211.608 9.04803 211.608 7.84284Z" fill="var(--fill-0, #141414)"/>
<path id="Vector_4" d="M205.54 44.5943C205.134 44.3934 204.932 44.1925 204.526 44.1925C204.121 43.7908 203.716 43.3891 203.513 43.1882C203.513 42.9873 203.31 42.5856 203.31 42.1839V32.7432C203.31 27.3198 202.094 23.3025 199.864 20.8921C197.837 18.6826 194.594 17.4774 190.135 17.2766H188.716C185.473 17.2766 183.041 17.6783 181.014 18.6826C178.987 19.4861 178.176 20.6913 178.176 21.8965C178.176 22.2982 178.379 22.9008 178.784 23.1017C179.19 23.5034 179.595 23.5034 180.203 23.5034C180.609 23.5034 181.825 23.1017 183.446 22.0973C185.27 21.093 186.892 20.6913 188.311 20.6913H190.135C191.959 20.8921 193.581 21.4947 194.797 22.4991C196.419 23.7042 197.432 25.512 197.635 27.7216H196.216C193.986 27.7216 191.959 27.9224 190.135 28.1233C186.689 28.525 183.852 29.5293 181.419 30.9354C177.974 32.9441 176.352 35.957 176.352 39.5726C176.352 42.3847 177.365 44.5943 179.19 46.2012C181.014 47.8081 183.446 48.6116 186.689 48.6116C187.905 48.6116 189.122 48.6116 190.135 48.2098C191.351 48.009 192.567 47.6072 193.581 47.0047C195.608 46.0003 197.229 44.5943 198.648 42.5856V45.7995C198.648 46.6029 198.851 47.2055 199.054 47.4064C199.256 47.8081 199.864 47.8081 200.675 47.8081C203.31 47.8081 205.134 47.8081 205.742 47.4064C206.351 47.2055 206.756 46.8038 206.756 46.2012C206.959 45.3977 206.553 44.996 205.54 44.5943ZM198.446 35.5553C198.446 37.564 198.243 38.97 197.635 40.1752C197.027 41.1796 196.013 42.3847 194.392 43.1882C193.581 43.5899 192.77 43.9917 191.757 44.1925C191.351 44.3934 190.946 44.3934 190.541 44.3934C189.932 44.3934 189.324 44.5943 188.716 44.5943C186.892 44.5943 185.27 44.1925 184.257 42.9873C183.041 41.983 182.433 40.577 182.433 38.7692C182.433 35.957 183.852 33.9484 186.487 32.3415C187.703 31.7389 188.919 31.1363 190.541 30.7345C192.567 30.3328 195 29.9311 197.837 29.9311H198.446V35.5553V35.5553Z" fill="var(--fill-0, #141414)"/>
<path id="Vector_5" d="M173.504 18.0821C172.896 17.6804 172.085 17.6804 171.072 17.6804H168.234H166.41C165.599 17.6804 164.383 17.4795 162.559 17.2786C160.734 17.0778 159.316 16.8769 158.099 16.8769C154.046 16.8769 150.6 18.283 148.168 20.8942C145.533 23.5055 144.316 27.1211 144.316 31.3392C144.316 35.5574 145.533 39.173 148.168 41.7842C150.6 44.3955 153.843 45.8015 157.897 45.8015H158.302C158.708 45.8015 159.316 45.8015 159.924 45.6007C160.734 45.3998 161.748 45.1989 163.167 44.9981C164.991 45.8015 166.41 46.605 167.221 47.4085C168.031 48.2119 168.437 49.2163 168.437 50.4215C168.437 52.0284 167.423 53.4344 165.599 54.2379C163.775 55.0414 161.343 55.644 158.302 55.644H157.897C155.059 55.644 153.032 55.4431 151.411 54.8405C149.992 54.4388 149.181 53.6353 149.181 52.631C149.181 52.631 149.181 52.4301 149.384 52.0284C149.384 51.6266 149.586 51.4258 149.586 51.2249C149.586 50.8232 149.586 50.6223 149.384 50.4215C149.181 50.2206 148.978 50.0197 148.573 50.0197C147.762 50.0197 146.951 50.4215 146.141 51.2249C145.33 52.0284 145.127 52.8318 145.127 54.037C145.127 55.8448 146.343 57.2509 148.573 58.2552C150.803 59.2595 154.046 59.6613 158.099 59.6613H158.505C163.167 59.6613 166.815 58.6569 169.45 57.05C172.288 55.4431 173.707 53.0327 173.707 50.2206C173.707 48.6137 173.099 47.0067 172.085 45.8015C170.869 44.5964 169.248 43.592 167.018 42.7886C168.842 41.3825 170.261 39.5747 171.072 37.5661C172.085 35.5574 172.491 33.3479 172.491 30.9375C172.491 28.9288 172.085 27.1211 171.477 25.5141C170.869 23.7063 169.856 22.3003 168.64 21.0951H170.261H170.666C172.288 21.0951 173.301 20.8942 173.91 20.6934C174.518 20.2916 174.923 19.8899 174.923 19.2873C174.315 18.8856 174.112 18.4838 173.504 18.0821ZM164.383 39.7756C162.964 41.7842 160.734 42.7886 158.099 42.7886C155.464 42.7886 153.235 41.7842 151.816 39.7756C150.397 37.7669 149.586 34.9548 149.586 31.3392C149.586 27.9245 150.397 25.1124 151.816 23.1037C153.235 21.0951 155.464 20.2916 158.099 20.2916C160.734 20.2916 162.964 21.296 164.383 23.3046C165.802 25.3133 166.613 27.9245 166.613 31.3392C166.613 34.9548 166.005 37.7669 164.383 39.7756Z" fill="var(--fill-0, #141414)"/>
<path id="Vector_6" d="M132.556 24.9115C132.556 24.1081 132.556 23.7063 132.353 23.3046C132.151 22.9029 131.948 22.702 131.34 22.3003C131.137 22.3003 130.934 22.0994 130.529 21.8986C129.718 21.4968 129.516 21.0951 129.516 20.6934C129.516 20.2916 129.516 20.0908 129.921 19.8899C130.124 19.689 130.529 19.2873 131.137 19.0864L131.543 18.8856C133.975 17.4795 135.799 16.8769 136.61 16.8769C137.015 16.8769 137.421 17.0778 137.623 17.4795C137.826 17.8812 137.826 18.6847 137.826 20.2916V42.186C137.826 42.7886 137.826 43.1903 138.029 43.592C138.231 43.9938 138.434 44.1946 138.637 44.1946C138.839 44.3955 139.245 44.3955 139.65 44.5964C140.664 44.9981 141.272 45.6007 141.272 46.2033C141.272 46.605 141.069 47.0067 140.664 47.2076C140.258 47.4085 139.65 47.4085 138.637 47.4085H131.948C130.934 47.4085 130.529 47.4085 130.124 47.2076C129.718 47.0067 129.718 46.8059 129.718 46.4041C129.718 46.0024 129.718 45.8015 129.921 45.6007C130.124 45.3998 130.326 45.199 130.934 44.9981C131.137 44.9981 131.34 44.7972 131.543 44.5964C132.353 44.1946 132.759 43.592 132.759 42.3868L132.556 24.9115Z" fill="var(--fill-0, #141414)"/>
<path id="Vector_7" d="M130.939 7.84284C130.939 6.63765 131.344 5.83419 131.952 5.23159C132.56 4.62899 133.574 4.22726 134.587 4.22726C135.601 4.22726 136.411 4.62899 137.222 5.23159C137.83 6.03505 138.236 6.83851 138.236 7.84284C138.236 8.84717 137.83 9.8515 137.222 10.4541C136.614 11.0567 135.803 11.4584 134.587 11.4584C133.371 11.4584 132.56 11.0567 131.952 10.4541C131.141 9.8515 130.939 9.04803 130.939 7.84284Z" fill="var(--fill-0, #141414)"/>
<path id="Vector_8" d="M117.36 8.0334C117.36 7.22994 117.36 6.82821 117.157 6.42648C116.954 6.22561 116.752 5.82388 116.144 5.62302C115.941 5.42215 115.738 5.42215 115.333 5.22129C114.522 4.81955 114.319 4.41782 114.319 4.01609C114.319 3.61436 114.319 3.4135 114.725 3.01176C114.927 2.8109 115.333 2.40917 115.941 2.2083H116.144C118.779 0.802244 120.603 0.199647 121.414 0.199647C121.819 0.199647 122.224 0.400513 122.427 0.802244C122.63 1.20397 122.63 2.00744 122.63 3.4135V42.3814C122.63 42.984 122.63 43.3857 122.832 43.7875C123.035 44.1892 123.238 44.3901 123.441 44.3901C123.643 44.3901 123.846 44.5909 124.454 44.7918C125.67 45.1935 126.278 45.7961 126.278 46.3987C126.278 46.8005 126.076 47.2022 125.67 47.4031C125.265 47.6039 124.657 47.6039 123.643 47.6039H116.752C115.941 47.6039 115.333 47.6039 114.927 47.4031C114.522 47.2022 114.319 47.0013 114.319 46.5996C114.319 46.1979 114.319 45.997 114.522 45.7961C114.725 45.5953 115.13 45.3944 115.536 45.1935C115.738 45.1935 115.941 44.9927 116.144 44.7918C116.954 44.3901 117.36 43.7875 117.36 42.5823V8.0334Z" fill="var(--fill-0, #141414)"/>
<path id="Vector_9" d="M102.966 8.03463C102.966 7.23116 102.966 6.82943 102.763 6.4277C102.56 6.22684 102.358 5.82511 101.952 5.62424C101.75 5.42338 101.547 5.42338 101.142 5.22251C100.128 4.61991 99.7228 4.21818 99.7228 3.81645C99.7228 3.41472 99.9255 3.21385 100.128 2.81212C100.331 2.61126 100.736 2.20953 101.344 2.00866H101.547C104.182 0.602602 106.006 5.68395e-06 106.817 5.68395e-06C107.222 5.68395e-06 107.628 0.200871 107.83 0.602602V3.21385V42.1818C107.83 42.7844 107.83 43.1861 108.033 43.5878C108.236 43.9896 108.439 44.1904 108.641 44.1904C108.844 44.1904 109.249 44.3913 109.655 44.5922C110.871 44.9939 111.479 45.5965 111.479 46.1991C111.479 46.6008 111.276 47.0025 110.871 47.2034C110.466 47.4043 109.857 47.4043 108.844 47.4043H101.952C100.939 47.4043 100.534 47.4043 100.128 47.2034C99.7228 47.0025 99.7228 46.8017 99.7228 46.3999C99.7228 45.9982 99.7228 45.7973 99.9255 45.5965C100.128 45.3956 100.534 45.1947 100.939 44.9939C101.142 44.9939 101.344 44.793 101.547 44.5922C102.358 44.1904 102.763 43.5878 102.763 42.3826L102.966 8.03463Z" fill="var(--fill-0, #141414)"/>
<path id="Vector_10" d="M95.4639 40.1773C95.2612 39.9764 95.0585 39.7756 94.6531 39.7756C94.2477 39.7756 93.6397 40.1773 92.6262 40.9808C91.8154 41.5834 91.2074 41.9851 90.5993 42.3868C89.5858 42.9894 88.3697 43.592 87.1535 43.7929C86.14 44.1946 84.7212 44.1946 83.505 44.1946C82.8969 44.1946 82.2889 44.1946 81.8835 43.9938C80.2619 43.7929 78.6404 42.9894 77.4242 41.9851C75.6 40.579 74.5865 38.5704 73.9785 36.16C76.8162 35.7583 79.4512 35.5574 81.8835 34.9548C85.3293 34.3522 88.167 33.3479 90.1939 32.3436C93.6397 30.5358 95.4639 28.1254 95.4639 25.1124C95.4639 22.5011 94.4504 20.4925 92.6262 19.0864C90.802 17.6804 88.167 16.8769 84.5185 16.8769C83.505 16.8769 82.6943 16.8769 81.8835 17.0778C78.4377 17.4795 75.6 19.0864 72.965 21.6977C69.7219 24.9115 68.3031 28.9288 68.3031 33.7496C68.3031 38.1687 69.7219 41.5834 72.3569 44.1946C74.7892 46.605 78.0323 48.0111 81.8835 48.2119H82.897C84.3158 48.2119 85.7346 48.0111 87.1535 47.6093C88.5723 47.2076 89.7885 46.8059 91.0047 46.0024C92.4235 45.199 93.6397 44.1946 94.4504 43.3912C95.2612 42.3868 95.8693 41.7842 95.8693 40.9808C95.8693 40.7799 95.6666 40.579 95.4639 40.1773ZM73.5731 32.7453C73.5731 28.9288 74.5865 25.9159 76.6135 23.5055C78.0323 21.6977 79.8566 20.6934 81.8835 20.0908C82.4916 19.8899 83.3023 19.8899 84.1131 19.8899C85.9373 19.8899 87.5589 20.2916 88.5723 21.296C89.5858 22.0994 90.1939 23.3046 90.1939 24.9115C90.1939 27.3219 88.775 29.1297 86.14 30.3349C84.9239 30.9375 83.505 31.3392 81.8835 31.9418C79.6539 32.5444 76.8162 32.9462 73.5731 33.3479V32.7453Z" fill="var(--fill-0, #141414)"/>
<path id="Vector_11" d="M54.3139 43.3881V21.4937H52.287C51.2735 21.4937 50.4627 21.2929 50.0574 21.092C49.652 20.8911 49.4493 20.2885 49.4493 19.686C49.4493 19.2842 49.652 18.8825 49.8547 18.4808C50.0574 18.2799 50.4627 18.079 50.8681 17.8782H51.6789C53.0977 17.6773 53.9085 17.4764 54.3139 17.0747C54.7193 16.673 55.1247 14.8652 55.5301 11.8522C55.5301 11.0487 55.7328 10.4461 55.7328 9.84354V8.83922C55.9354 6.83056 56.7462 5.62537 57.7597 5.62537C58.1651 5.62537 58.5704 5.82623 58.7731 6.0271C59.1785 6.62969 59.1785 7.43316 59.1785 9.04008V17.6773H63.6378C64.6512 17.6773 65.462 17.8782 65.8674 18.079C66.2728 18.2799 66.4755 18.8825 66.4755 19.4851C66.4755 20.0877 66.2728 20.4894 65.8674 20.8911C65.462 21.092 64.6512 21.2929 63.6378 21.2929H59.1785V39.7725C59.1785 40.9777 59.1785 41.982 59.3812 42.3838C59.5839 42.9863 59.9893 43.3881 60.3947 43.3881C61.0028 43.5889 62.2189 43.7898 63.8405 43.7898C65.462 43.7898 66.4755 44.3924 66.4755 45.1959C66.4755 45.7985 66.2728 46.4011 65.8674 46.6019C65.462 46.8028 64.4485 47.0037 62.827 47.0037H56.7462C55.5301 47.0037 54.922 46.8028 54.5166 46.4011C54.5166 46.4011 54.3139 45.1959 54.3139 43.3881Z" fill="var(--fill-0, #141414)"/>
<path id="Vector_12" d="M18.6458 41.9851V27.7236C18.6458 25.715 18.6458 24.3089 18.4431 23.9072C18.2404 23.3046 18.0377 22.9029 17.6323 22.5011C17.4296 22.3003 16.8216 22.0994 16.2135 21.6977C15.6054 21.4968 15.2 21.0951 15.2 20.4925C15.2 19.8899 15.8081 19.2873 17.0242 18.283C18.2404 17.2786 19.4566 16.8769 20.2673 16.8769C20.8754 16.8769 21.2808 17.2786 21.8889 18.283C22.2943 19.0864 22.6996 20.4925 23.105 22.0994C24.5239 20.2916 25.9427 19.0864 27.767 18.283C29.5912 17.4795 31.4154 16.8769 33.4424 16.8769C36.8881 16.8769 39.7258 18.0821 41.3474 20.2916C43.1716 22.5011 43.9824 26.1167 43.9824 30.7366V41.9851C43.9824 42.5877 43.9824 43.1903 44.1851 43.3912C44.1851 43.7929 44.3878 43.7929 44.5905 43.9938C44.7932 44.1946 44.9959 44.3955 45.4012 44.3955C46.212 44.7972 46.6174 45.3998 46.6174 45.8015C46.6174 46.2033 46.4147 46.4041 46.212 46.605C45.8066 46.8059 45.1986 46.8059 44.5905 46.8059H38.1043C37.2935 46.8059 36.6855 46.8059 36.4828 46.605C36.0774 46.4041 36.0774 46.2033 36.0774 45.8015C36.0774 45.1989 36.4828 44.7972 37.0908 44.5963C37.2935 44.5963 37.4962 44.3955 37.4962 44.3955C38.307 43.9938 38.7124 43.7929 38.9151 43.3912C39.1178 43.1903 39.1178 42.5877 39.1178 41.5834V30.9375C39.1178 27.5228 38.5097 24.9115 37.2935 23.3046C36.0774 21.6977 34.2531 20.8942 31.6181 20.8942C29.1858 20.8942 27.1589 21.6977 25.74 22.9029C24.3212 24.3089 23.5104 26.1167 23.5104 28.5271V42.7886V43.7929C23.5104 43.9938 23.7131 44.1946 23.9158 44.1946C24.1185 44.3955 24.3212 44.5963 24.9293 44.5963C25.74 44.9981 26.1454 45.3998 26.1454 46.0024C26.1454 46.4041 25.9427 46.8059 25.74 47.0067C25.3347 47.2076 24.7266 47.2076 23.9158 47.2076H18.0377C17.2269 47.2076 16.6189 47.2076 16.4162 47.0067C16.2135 46.8059 16.0108 46.605 16.0108 46.2033C16.0108 45.8015 16.0108 45.6007 16.2135 45.3998C16.4162 45.1989 16.6189 44.9981 17.2269 44.5963C17.2269 44.5963 17.4296 44.5964 17.6323 44.3955C18.2404 44.1946 18.6458 43.3912 18.6458 41.9851Z" fill="var(--fill-0, #141414)"/>
<path id="Vector_13" d="M3.04039 24.9115C3.04039 24.1081 3.04039 23.7063 2.8377 23.3046C2.63501 22.9029 2.43231 22.702 1.82424 22.3003C1.62154 22.3003 1.41885 22.0994 1.01346 21.8986C0.202693 21.4968 0 21.0951 0 20.6934C0 20.2916 0 20.0908 0.405386 19.8899C0.608079 19.689 1.01346 19.2873 1.62154 19.0864L1.82424 18.8856C4.25655 17.4795 6.08079 16.8769 6.89156 16.8769C7.29694 16.8769 7.70233 17.0778 7.90502 17.4795C8.10771 17.8812 8.10771 18.6847 8.10771 20.2916V42.186C8.10771 42.7886 8.10771 43.1903 8.31041 43.592C8.5131 43.9938 8.71579 44.1946 8.91849 44.1946C9.32387 44.3955 9.52656 44.3955 9.93195 44.5964C10.9454 44.9981 11.5535 45.6007 11.5535 46.2033C11.5535 46.605 11.3508 47.0067 10.9454 47.2076C10.54 47.4085 9.93195 47.4085 8.91849 47.4085H2.22962C1.21616 47.4085 0.810771 47.4085 0.405386 47.2076C0 47.0067 0 46.8059 0 46.4041C0 46.0024 0 45.8015 0.202693 45.6007C0.405386 45.199 0.608079 44.9981 1.01346 44.7972C1.21616 44.7972 1.41885 44.5964 1.62154 44.3955C2.43231 43.9938 2.8377 43.3912 2.8377 42.186L3.04039 24.9115Z" fill="var(--fill-0, #141414)"/>
<path id="Vector_14" d="M1.42311 7.84284C1.42311 6.63765 1.82849 5.83419 2.43657 5.23159C3.04465 4.62899 4.05811 4.22726 5.07158 4.22726C6.08504 4.22726 7.09851 4.62899 7.70658 5.23159C8.31466 6.03505 8.72005 6.83851 8.72005 7.84284C8.72005 8.84717 8.31466 9.8515 7.70658 10.4541C7.09851 11.0567 6.08504 11.4584 5.07158 11.4584C3.85542 11.4584 3.04465 11.0567 2.43657 10.4541C1.6258 9.8515 1.42311 9.04803 1.42311 7.84284Z" fill="var(--fill-0, #141414)"/>
</g>
</svg>
